<?xml version="1.0" encoding="UTF-8"?>
<svg viewBox="0 0 445.04288 451.58554" xmlns="http://www.w3.org/2000/svg" xmlns:xlink="http://www.w3.org/1999/xlink">
 <defs>
  <filter id="ci">
   <feGaussianBlur stdDeviation="1.01196"/>
  </filter>
  <filter id="ck">
   <feGaussianBlur stdDeviation="1.15524"/>
  </filter>
  <filter id="cl">
   <feGaussianBlur stdDeviation=".9622"/>
  </filter>
  <filter id="cj">
   <feGaussianBlur stdDeviation="1.4106"/>
  </filter>
  <linearGradient id="b">
   <stop stop-color="#d8f055" offset="0"/>
   <stop stop-color="#778e2b" offset=".51351"/>
   <stop stop-color="#446313" offset="1"/>
  </linearGradient>
  <linearGradient id="q" x1="1325.5" x2="1306.7" y1="313.91" y2="384.82" gradientUnits="userSpaceOnUse">
   <stop stop-color="#c4b980" offset="0"/>
   <stop stop-color="#b8ac68" stop-opacity="0" offset="1"/>
  </linearGradient>
  <linearGradient id="r" x1="1310.8" x2="1302.3" y1="314.98" y2="371.74" gradientUnits="userSpaceOnUse">
   <stop stop-color="#a4a05c" offset="0"/>
   <stop stop-color="#6f6b3e" offset="1"/>
  </linearGradient>
  <linearGradient id="a">
   <stop stop-color="#c6bc7f" offset="0"/>
   <stop stop-color="#f1eedf" offset="1"/>
  </linearGradient>
  <linearGradient id="g">
   <stop stop-color="#b4c0ac" offset="0"/>
   <stop stop-color="#9aa79a" offset=".41037"/>
   <stop stop-color="#4e5b5b" offset="1"/>
  </linearGradient>
  <linearGradient id="d">
   <stop offset="0"/>
   <stop stop-color="#4e4b32" stop-opacity="0" offset="1"/>
  </linearGradient>
  <linearGradient id="c">
   <stop stop-color="#aad559" offset="0"/>
   <stop stop-color="#506b31" offset=".67003"/>
   <stop stop-color="#2f481c" offset="1"/>
  </linearGradient>
  <linearGradient id="n">
   <stop stop-color="#d0c898" offset="0"/>
   <stop stop-color="#938b4c" offset="1"/>
  </linearGradient>
  <linearGradient id="m">
   <stop offset="0"/>
   <stop stop-color="#858055" stop-opacity="0" offset="1"/>
  </linearGradient>
  <linearGradient id="ca" x1="446.83" x2="385.3" y1="194.28" y2="198.99" gradientTransform="matrix(-.70711 .70711 .70711 .70711 1040.6 -270.74)" gradientUnits="userSpaceOnUse">
   <stop stop-color="#6b9223" offset="0"/>
   <stop stop-color="#909050" offset="1"/>
  </linearGradient>
  <linearGradient id="h">
   <stop stop-opacity="0" offset="0"/>
   <stop offset="1"/>
  </linearGradient>
  <linearGradient id="o">
   <stop stop-color="#dada96" offset="0"/>
   <stop stop-color="#b5bf47" offset="1"/>
  </linearGradient>
  <linearGradient id="f">
   <stop stop-color="#455927" offset="0"/>
   <stop stop-color="#5e781c" offset="1"/>
  </linearGradient>
  <linearGradient id="e">
   <stop stop-color="#6b9223" offset="0"/>
   <stop stop-color="#baba82" offset="1"/>
  </linearGradient>
  <linearGradient id="ah">
   <stop stop-color="#dcc890" offset="0"/>
   <stop stop-color="#fdfdfd" stop-opacity="0" offset="1"/>
  </linearGradient>
  <linearGradient id="ag">
   <stop stop-color="#dcc890" offset="0"/>
   <stop stop-color="#ede2c4" stop-opacity="0" offset="1"/>
  </linearGradient>
  <linearGradient id="p" x1="438.82" x2="390.94" y1="203.94" y2="186.77" gradientTransform="matrix(.66962 .84899 -.73207 .56523 1118.8 -321.84)" gradientUnits="userSpaceOnUse" xlink:href="#e"/>
  <linearGradient id="s" x1="1146.9" x2="1134.3" y1="148.74" y2="142.72" gradientUnits="userSpaceOnUse" xlink:href="#a"/>
  <linearGradient id="t" x1="1166.2" x2="1205.4" gradientUnits="userSpaceOnUse" xlink:href="#a"/>
  <linearGradient id="u" x1="1154.4" x2="1169.1" gradientUnits="userSpaceOnUse" xlink:href="#a"/>
  <linearGradient id="ce" x1="1175.1" x2="1193.1" y1="150.11" y2="142.34" gradientUnits="userSpaceOnUse" xlink:href="#a"/>
  <linearGradient id="v" x1="1150.4" x2="1161" y1="109.3" y2="105.93" gradientUnits="userSpaceOnUse" xlink:href="#a"/>
  <linearGradient id="w" x1="1130.4" x2="1133.4" y1="118.56" y2="109.05" gradientUnits="userSpaceOnUse" xlink:href="#a"/>
  <linearGradient id="x" x1="1137.9" x2="1146.5" y1="110.24" y2="104.81" gradientUnits="userSpaceOnUse" xlink:href="#a"/>
  <linearGradient id="y" x1="1156.2" x2="1168.4" gradientUnits="userSpaceOnUse" xlink:href="#a"/>
  <linearGradient id="z" x1="1129.4" x2="1130.7" y1="127.66" y2="119.94" gradientUnits="userSpaceOnUse" xlink:href="#a"/>
  <linearGradient id="cf" x1="1109.7" x2="1128.7" y1="137.11" y2="130.74" gradientUnits="userSpaceOnUse" xlink:href="#a"/>
  <linearGradient id="aa" x1="1132.8" x2="1125.1" y1="149.12" y2="138.08" gradientUnits="userSpaceOnUse" xlink:href="#a"/>
  <linearGradient id="ab" x1="1140.3" x2="1157.3" gradientUnits="userSpaceOnUse" xlink:href="#a"/>
  <linearGradient id="ac" x1="1175.5" x2="1182.9" y1="166.18" y2="161.71" gradientUnits="userSpaceOnUse" xlink:href="#a"/>
  <linearGradient id="ad" x1="1186.1" x2="1192.9" y1="141.27" y2="134.55" gradientUnits="userSpaceOnUse" xlink:href="#a"/>
  <linearGradient id="cg" x1="1177.2" x2="1187.8" y1="118.73" y2="111.92" gradientUnits="userSpaceOnUse" xlink:href="#a"/>
  <linearGradient id="ae" x1="1163.7" x2="1194.9" gradientUnits="userSpaceOnUse" xlink:href="#a"/>
  <linearGradient id="af" x1="1160.6" x2="1182.4" gradientUnits="userSpaceOnUse" xlink:href="#a"/>
  <linearGradient id="cd" x1="1075.8" x2="1160.7" y1="159.89" y2="179.91" gradientTransform="matrix(-.12504 0 0 .12504 1077.5 263.74)" gradientUnits="userSpaceOnUse" xlink:href="#c"/>
  <linearGradient id="bs" x1="438.82" x2="358.9" y1="203.94" y2="204.23" gradientTransform="matrix(.66962 .84899 -.73207 .56523 1118.8 -321.84)" gradientUnits="userSpaceOnUse" xlink:href="#e"/>
  <linearGradient id="bt" x1="1179.5" x2="1193.1" y1="151.63" y2="142.34" gradientUnits="userSpaceOnUse" xlink:href="#a"/>
  <linearGradient id="bq" x1="1130.4" x2="1128.7" y1="141.56" y2="130.74" gradientUnits="userSpaceOnUse" xlink:href="#a"/>
  <linearGradient id="br" x1="1186.2" x2="1187.8" y1="127.11" y2="111.92" gradientUnits="userSpaceOnUse" xlink:href="#a"/>
  <linearGradient id="bu" x1="944.68" x2="974.34" y1="266.4" y2="273.39" gradientUnits="userSpaceOnUse" xlink:href="#c"/>
  <linearGradient id="bv" x1="985.64" x2="1015.1" y1="295.14" y2="346.18" gradientUnits="userSpaceOnUse" xlink:href="#h"/>
  <linearGradient id="bx" x2="0" y1="187.76" y2="342.47" gradientUnits="userSpaceOnUse" xlink:href="#h"/>
  <linearGradient id="cc" x2="0" y1="549.76" y2="346.05" gradientUnits="userSpaceOnUse" xlink:href="#m"/>
  <linearGradient id="cb" x1="446" x2="447.17" y1="116" y2="290" gradientTransform="matrix(-.70711 .70711 .70711 .70711 1040.6 -270.74)" gradientUnits="userSpaceOnUse" xlink:href="#o"/>
  <linearGradient id="bw" x1="1036.2" x2="946.19" y1="248.1" y2="301.76" gradientUnits="userSpaceOnUse" xlink:href="#h"/>
  <linearGradient id="bz" x1="442.63" x2="447.22" y1="73.3" y2="224.47" gradientTransform="matrix(.8274 .47296 -.41184 .70351 748.42 -172.59)" gradientUnits="userSpaceOnUse" xlink:href="#o"/>
  <linearGradient id="by" x1="446.83" x2="390.94" y1="194.28" y2="186.77" gradientTransform="matrix(.8274 .47296 -.41184 .70351 748.42 -172.59)" gradientUnits="userSpaceOnUse" xlink:href="#e"/>
  <radialGradient id="am" cx="-61.47" cy="716.21" r="40.99" fx="-60.35" fy="698.08" gradientTransform="matrix(1.2258 -.18767 .50177 3.2774 -345.49 -1642.6)" gradientUnits="userSpaceOnUse">
   <stop stop-color="#807b5e" offset="0"/>
   <stop stop-color="#3d3c37" offset="1"/>
  </radialGradient>
  <radialGradient id="ao" cx="930.49" cy="236.12" r="68" gradientTransform="matrix(1.4677 0 7.2682e-7 .7718 -430.7 77.761)" gradientUnits="userSpaceOnUse">
   <stop stop-color="#c0caba" offset="0"/>
   <stop stop-color="#9daca0" offset=".43632"/>
   <stop stop-color="#4d5a5a" offset="1"/>
  </radialGradient>
  <radialGradient id="at" cx="594.14" cy="252.63" r="81.78" fx="578.03" fy="228.67" gradientTransform="matrix(.53389 .27634 -.90527 1.749 455.4 -349)" gradientUnits="userSpaceOnUse">
   <stop stop-color="#dada96" offset="0"/>
   <stop stop-color="#a2ac3b" offset="1"/>
  </radialGradient>
  <radialGradient id="au" cx="591.55" cy="387.59" r="53.92" gradientTransform="matrix(.66662 -2.6346 .37532 .094969 58.374 1748)" gradientUnits="userSpaceOnUse">
   <stop stop-color="#c1b777" offset="0"/>
   <stop stop-color="#59542d" offset="1"/>
  </radialGradient>
  <radialGradient id="aq" cx="588.47" cy="259.07" r="125.26" gradientTransform="matrix(.16261 -.16088 -1.1885 -1.2013 1118.2 641.79)" gradientUnits="userSpaceOnUse">
   <stop stop-color="#3c4d22" offset="0"/>
   <stop stop-color="#5e781c" offset="1"/>
  </radialGradient>
  <radialGradient id="bp" cx="256.71" cy="235.86" r="16.018" gradientUnits="userSpaceOnUse">
   <stop stop-color="#fff" offset="0"/>
   <stop stop-color="#d0c898" stop-opacity="0" offset="1"/>
  </radialGradient>
  <radialGradient id="bo" cx="281.65" cy="222.15" r="-24.863" gradientUnits="userSpaceOnUse">
   <stop stop-color="#fff" offset="0"/>
   <stop stop-color="#fff" stop-opacity="0" offset="1"/>
  </radialGradient>
  <radialGradient id="bh" cx="66.405" cy="1073.7" r="178.3" gradientTransform="matrix(1.0404e-7 .92662 -1.9892 0 2319.3 301.87)" gradientUnits="userSpaceOnUse">
   <stop stop-color="#90b4c0" offset="0"/>
   <stop stop-color="#90b4c0" stop-opacity="0" offset="1"/>
  </radialGradient>
  <radialGradient id="ak" cx="928.18" cy="267.05" r="68" gradientTransform="matrix(1.4404 0 3.715e-7 .63109 -441.14 109.09)" gradientUnits="userSpaceOnUse" xlink:href="#g"/>
  <radialGradient id="al" cx="753" cy="-3" r="49" gradientTransform="matrix(1.2863 0 0 .55102 -64.396 304.65)" gradientUnits="userSpaceOnUse" xlink:href="#d"/>
  <radialGradient id="av" cx="572.29" cy="236.59" r="81.78" fx="556.18" fy="212.64" gradientTransform="matrix(-.22832 .051622 -.14112 -.62414 118.28 834.28)" gradientUnits="userSpaceOnUse" xlink:href="#b"/>
  <radialGradient id="aw" cx="572.29" cy="236.59" r="81.78" fx="556.18" fy="212.64" gradientTransform="matrix(.17192 .15887 .43428 -.46997 -309.19 705.91)" gradientUnits="userSpaceOnUse" xlink:href="#b"/>
  <radialGradient id="ax" cx="572.29" cy="236.59" r="81.78" fx="556.18" fy="212.64" gradientTransform="matrix(.095346 .29359 .80258 -.26064 -366.73 572.12)" gradientUnits="userSpaceOnUse" xlink:href="#b"/>
  <radialGradient id="ay" cx="572.29" cy="236.59" r="81.78" fx="556.18" fy="212.64" gradientTransform="matrix(-.17192 .15887 -.43428 -.46997 170.66 732.78)" gradientUnits="userSpaceOnUse" xlink:href="#b"/>
  <radialGradient id="az" cx="572.29" cy="236.59" r="81.78" fx="556.18" fy="212.64" gradientTransform="matrix(-.095346 .29359 -.80258 -.26064 228.2 598.99)" gradientUnits="userSpaceOnUse" xlink:href="#b"/>
  <radialGradient id="ba" cx="572.29" cy="236.59" r="81.78" fx="556.18" fy="212.64" gradientTransform="matrix(-.22885 .20716 -.56629 -.6256 203.28 657.02)" gradientUnits="userSpaceOnUse" xlink:href="#b"/>
  <radialGradient id="bb" cx="572.29" cy="236.59" r="81.78" fx="556.18" fy="212.64" gradientTransform="matrix(.15434 .26733 .73079 -.42192 -378.54 632.69)" gradientUnits="userSpaceOnUse" xlink:href="#b"/>
  <radialGradient id="bc" cx="572.29" cy="236.59" r="81.78" fx="556.18" fy="212.64" gradientTransform="matrix(-.26733 .15434 -.42192 -.73079 171.55 777.2)" gradientUnits="userSpaceOnUse" xlink:href="#b"/>
  <radialGradient id="bd" cx="572.29" cy="236.59" r="81.78" fx="556.18" fy="212.64" gradientTransform="matrix(.11976 .21314 .73567 -.41335 -340.31 599.32)" gradientUnits="userSpaceOnUse" xlink:href="#b"/>
  <radialGradient id="be" cx="572.29" cy="236.59" r="81.78" fx="556.18" fy="212.64" gradientTransform="matrix(-.17202 .25631 -.70067 -.47024 248.74 605.8)" gradientUnits="userSpaceOnUse" xlink:href="#b"/>
  <radialGradient id="bf" cx="572.29" cy="236.59" r="81.78" fx="556.18" fy="212.64" gradientTransform="matrix(-.24978 -9.54e-8 4.7536e-7 -.68281 106.46 837.32)" gradientUnits="userSpaceOnUse" xlink:href="#b"/>
  <radialGradient id="bg" cx="572.29" cy="236.59" r="81.78" fx="556.18" fy="212.64" gradientTransform="matrix(-.31315 .1808 -.49423 -.85603 283.43 772.61)" gradientUnits="userSpaceOnUse" xlink:href="#b"/>
  <radialGradient id="j" cx="928.54" cy="255.11" r="68" gradientTransform="matrix(1.6517 0 4.26e-7 .57017 -600.77 125.36)" gradientUnits="userSpaceOnUse" xlink:href="#g"/>
  <radialGradient id="k" cx="753" cy="-3" r="49" gradientUnits="userSpaceOnUse" xlink:href="#d"/>
  <radialGradient id="l" cx="703.64" cy="273.48" r="125.26" gradientTransform="matrix(-.15407 -.1935 1.231 -.96281 1001.6 575.11)" gradientUnits="userSpaceOnUse" xlink:href="#f"/>
  <radialGradient id="aj" cx="570.69" cy="276.61" r="125.26" gradientTransform="matrix(-.39897 -.36017 1.7306 -.83702 1003.2 635.43)" gradientUnits="userSpaceOnUse" xlink:href="#f"/>
  <radialGradient id="ai" cx="928.54" cy="255.11" r="68" gradientTransform="matrix(-1.1252 0 -2.9021e-7 .53452 2031.7 146.39)" gradientUnits="userSpaceOnUse" xlink:href="#g"/>
  <radialGradient id="i" cx="753" cy="-3" r="49" gradientUnits="userSpaceOnUse" xlink:href="#m"/>
  <radialGradient id="an" cx="753" cy="-3" r="49" gradientTransform="matrix(1.298 0 0 .24476 -34.414 334.71)" gradientUnits="userSpaceOnUse" xlink:href="#d"/>
  <radialGradient id="ar" cx="511.8" cy="201.86" r="81.78" fx="495.69" fy="177.9" gradientTransform="matrix(.70347 .53236 -1.4553 1.923 501.63 -497.62)" gradientUnits="userSpaceOnUse" xlink:href="#c"/>
  <radialGradient id="as" cx="588.24" cy="261.21" r="53.92" gradientTransform="matrix(.65568 -2.3177 .35163 .099477 74.198 1543.5)" gradientUnits="userSpaceOnUse" xlink:href="#n"/>
  <radialGradient id="ap" cx="588.47" cy="259.07" r="125.26" gradientTransform="matrix(-.18977 -.10732 .68844 -1.1931 948.54 599.19)" gradientUnits="userSpaceOnUse" xlink:href="#f"/>
  <radialGradient id="bn" cx="211.83" cy="275.13" r="-80.869" gradientUnits="userSpaceOnUse" xlink:href="#ag"/>
  <radialGradient id="bm" cx="211.83" cy="275.13" r="54.434" gradientUnits="userSpaceOnUse" xlink:href="#ah"/>
  <radialGradient id="bl" cx="145.83" cy="312.13" r="-28.521" gradientUnits="userSpaceOnUse" xlink:href="#ag"/>
  <radialGradient id="bk" cx="145.83" cy="312.13" r="19.198" gradientUnits="userSpaceOnUse" xlink:href="#ah"/>
  <radialGradient id="bj" cx="592.46" cy="232.33" r="53.92" gradientTransform="matrix(1.2828 -1.8691 .1783 .12237 -248.13 1273)" gradientUnits="userSpaceOnUse" xlink:href="#n"/>
  <radialGradient id="bi" cx="511.8" cy="201.86" r="81.78" fx="495.69" fy="177.9" gradientTransform="matrix(.6015 .47548 -1.2998 1.6443 523.62 -411.32)" gradientUnits="userSpaceOnUse" xlink:href="#c"/>
 </defs>
 <path d="m46.732 363.94c-19.95 25.391 36.575 17.244 51.934 17.041 43.788-0.58075 135.35-4.0706 131.38 2.0894-4.8376 7.4931-125.88-10.99-158.78 3.0037-12.414 5.2814-26.242 27.059 2.4863 31.206 18.677 2.696 36.472-1.6954 47.18 19.067 10.048 19.482 51.514 3.3763 75.999 12.548 24.845 9.3069 62.298-8.4799 93.836-9.208 25.444-0.5874 74.621 12.793 82.41-3.4354 3.5312-7.3569-15.243-1.4294-11.5-17.772 7.4806-32.664-61.655-11.795-88.905-10.76-11.302 0.42928-36.106 0.61219-10.625-3.1422 34.615-5.1003 69.342-16.311 104.1-10.248 13.496 2.3539 51.971-15.997 21.28-15.942-33.31 0.05918-66.122-6.6708-98.748-5.0899-78.364 3.7969-157.34 1.5828-235.05-7.6082-2.3929-0.28303-5.5777-3.563-7.0022-1.75zm154.84 34.438c-0.57729 4.8121-58.206 2.0412-25.93-0.0041 8.6142-0.54588 26.367-3.6317 25.93 0.0041zm-25.094 22.062c14.65 1.7938 55.561 2.3353 51.892 3.4751-17.908 5.5643-74.938 5.375-76.213-1.7376-0.75328-4.2015 16.208-2.7308 24.321-1.7375zm146.97 3.5938c43.274 2.4945-53.657 11.819-22.226 1.2257 6.9939-2.3573 14.828-1.6522 22.226-1.2257z" fill="url(#bh)"/>
 <g transform="matrix(-1.1014 -.47495 -.47495 1.1014 860.83 219.33)">
  <path d="m631.08,112.52c-59.76,39.68-78.55,111.48-80.65,229.39 .78,10.88-15.63,12.48-15.35,1.58 2.05-111.14 27.56-199.11 93.91-236.84 20.17-11.47 16.25-3.53 2.09,5.87z" fill="url(#bj)"/>
  <path d="m628.47 87.793c-5.9458 5.6617-14.399 17.279-6.4258 24.674 10.804-3.8202 6.2494-17.749 6.4258-24.674zm14.634 2.635c-5.4854 2.9876-14.017 9.9129-9.6092 16.926 8.7081-0.67588 8.1106-11.872 9.6092-16.926zm-31.188 5.3287c-7.1212 6.7588-17.22 20.688-7.6894 29.533 12.93-4.5646 7.4739-21.256 7.6894-29.533zm45.274 0.88158c-4.5352 0.66608-14.076-1.244-15.741 6.1515 5.4952 4.6626 12.489-1.7926 15.741-6.1515zm-70.105 5.8478c-7.4445 11.392-16.662 33.392-0.97954 42.306 16.006-10.275 3.3206-31.061 0.97954-42.306zm53.385 6.1809c-3.6341 0.13714-7.1212 1.1167-8.3554 5.2111 5.1426 5.0348 12.548-0.91097 16.104-5.025-1.9982 0.14693-4.9173-0.28406-7.7481-0.18611zm-13.89 9.4035c-3.4186 0.04898-6.5335 1.2636-8.757 4.8683 5.4462 9.2076 18.386 3.4872 25.066-1.0481-4.1826-0.79342-10.628-3.9181-16.309-3.8202zm-69.733 7.6208c-1.773 13.498-0.51915 37.31 17.475 38.535 9.9619-16.202-10.491-29.425-17.475-38.535zm59.105 6.3082c-6.5041 0.16652-12.518 2.1452-15.242 9.3644 9.7268 10.941 25.644-0.08816 33.422-7.9244-4.6528 0.01959-11.676-1.6162-18.18-1.4399zm-85.435 12.91c0.70527 17.426 7.5718 47.184 31.13 44.853 9.2958-22.608-20.071-34.852-31.13-44.853zm85.778 9.7954c-11.333 1.9101-35.302-2.3509-39.064 16.29 14.007 11.372 31.149-5.2013 39.064-16.29zm-107.45 26.878c4.6332 19.855 18.944 52.552 44.814 44.784 5.407-27.956-30.219-35.694-44.814-44.784zm103.46 0.86199c-14.722 3.2325-46.401-0.78363-50.103 23.901 19.111 13.998 40.465-8.855 50.103-23.901zm-2.6937 18.944c-16.779 10.452-57.734 19.375-51.514 51.514 29.748 8.9334 46.185-28.691 51.514-51.514zm-119.5 19.189c5.6813 24.312 23.166 64.375 54.854 54.854 6.6314-34.235-36.968-43.717-54.854-54.854zm117 25.928c-17.877 11.137-61.485 20.619-54.854 54.854 31.688 9.5211 49.173-30.542 54.854-54.854z" fill="url(#bi)"/>
 </g>
 <g transform="matrix(.73266 0 0 .73266 20.627 59.882)">
  <use transform="matrix(1.9803 0 0 1.9803 -491.13 -487.4)" width="397.1575" height="359.88495" xlink:href="#ch"/>
  <g transform="translate(-733.01 151.15)">
   <path d="m981.13 273.09c-29.546-18.917-39.755-43.9-30.515-66.079 21.686 12.775 28.368-13.904 14.063-23.157 34.42-34.559 34.395-56.002 86.861-76.868 4.9017 7.1272 16.764-0.4558 9.4292-7.2282 10.985-8.4836 20.513-16.151 27.217-22.735 0.6657 10.691-94.791 205.87-107.06 196.07z" fill="url(#by)"/>
   <path d="m981.75 272.98c12.708 3.2724 106.2-185.97 106.43-195.96 1.4645 14.341 1.5546 32.412 0.0991 51.858-16.271 1.4166-12.84 21.266-2.5713 24.287-1.8715 13.73-3.2703 18.011-6.693 31.36-15.211-5.0469-32.112 15.672-7.7013 31.311-8.6184 15.665-19.382 36.092-33.836 49.522-14.415 13.385-32.484 19.814-55.731 7.6222z" fill="url(#ap)"/>
   <path d="m982.08 274.58c-9.7513-5.5782 84.891-142.38 106.64-197.25-16.146 61.087-101.55 200.16-106.64 197.25z" fill="url(#bz)"/>
   <path d="m967.19,172.22c-.64.28-1.26.56-1.91.84 .42.6.79,1.2 1.13,1.82 .2-.9.45-1.8.78-2.66zm.75,16.91c-3.08,10.94-15.41,17.81-27.28,2.34-19.14,19.41-18.99,50.01 4.06,82.47 .28.5.74.8 1.37.94 5.09,5.83 10.36,10.17 15.72,13.25 .21-.12.42-.26.57-.47 25.97-29.41 47.59-71.42 30.56-96.07-11.04,11.51-20.88,6.57-25-2.46z" fill="url(#bw)" filter="url(#cj)"/>
   <path d="m959.98 280.81c24.49-27.54 25.97-57.87 7.69-80.94-18.4 18.96-35.64-9.73-23.82-23.17-13.73-10.93-30.12-21.24-47.43-30.93-10.41 19.65-40.84 7.91-31.97-16.84-14.63-7.34-29.18-14.24-42.69-20.71-2.56 9.07-18.13 3-12.83-6.17-14.97-7.27-28.07-13.92-37.75-19.94 3.34 12.2 179.38 212.32 188.8 198.7z" fill="url(#ca)"/>
   <path d="m959.27 280.81c-12.36 6.36-184.06-187.48-188.09-198.7 3.86 16.48 10.6 36.89 19.52 58.52 17.95-1.81 21.79 21.29 11.93 26.85 7.2 15.09 15.27 30.24 23.98 44.58 14.38-8.89 24.76 14.48 15.14 23.09 8.81 12.4 18.07 23.65 27.6 33.05 23.25-7.95 36.8 3.71 31.61 23.1 21.7 10.01 38.03 12.32 58.31-10.49z" fill="url(#aq)"/>
   <path d="m959.52 282.68c-1.59-9.44-151.68-143.55-188.8-200.11 40.4 65.51 189.82 206.18 188.8 200.11z" fill="url(#cb)"/>
   <path transform="translate(733.01 -151.15)" d="m74.94,316.09c-.95.02-1.86.13-2.75.35-.72.87-1.57,1.62-2.56,2.19 .91,1.91 1.84,3.83 2.78,5.75 8,.28 14.42,3.03 16.18-.41 6.95,9.66 12.59,20.24 12,29.91-.41,2.37-1.01,4.88-1.78,7.4 2.46-.28 4.73.37 6.66,1.63 1.6-4.18 3.09-9.26 1.03-13.13-1.77-5.89-4.14-12.4-7.62-18.5 4.46,2.68 9.65,6.33 13.65,12.66-2-15.39-7.53-21.78-22.37-23.72-.02.02-.02.04-.03.06-.76-.1-1.52-.07-2.13.13-3.34-1.92-6.31-3.21-9-3.85-1.42-.33-2.77-.49-4.06-.47zm58.59,27.91c-17.3,1.29-16.28,14.89-24.28,22.72 .87,1.27 1.59,2.69 2.13,4.19 1.98-1.23 3.82-2.55 5.25-4.16 .56-3.63 2.21-5.49 4.56-6.16-1.44,3.15 6.56,9.59 3.59,18.32 8.82-6.81 9.9-11.77 2.41-18.22 2.86.58 6.08,1.72 9.31,2.9-4.84,7.35 14.34,10.81 20.81,28.32 2.64-16.82-2.01-24.77-19.53-29.85-.35.34-.62.68-.87,1-7.33-3.31-14.87-7.9-11.78-11.9 2.02-.79 6.89-2.76 10.59-4.53 .37,2.48 2.19,3.83 4.91,5.06-2.37-2.55-4.73-5.12-7.1-7.69zm-23.5,44.13c3.84,5.33 7.79,10.41 11.78,15.25 1.76-3.94 1.53-7.08-1-10 1.35.27 2.66.52 4.16.84-1.06,5.33 10.6,5.53 17.66,16.47-.53-3.7-1.32-6.7-2.5-9.13 5.41,2.27 14.83.95 27.09,9.38-11.04-14.11-18.95-18.74-29.72-15.81-5.57-2.93-14.47-4.9-22.69-6.29-.38-.21-.75-.44-1.15-.65-.27.11-.53.23-.75.34-1.02-.16-1.91-.26-2.88-.4z" fill-opacity=".29508" filter="url(#cl)"/>
   <path transform="translate(753.3 -246.01)" d="m152.28,404.81c-1.41,1-4.87,1.97-3.84,4.78 2.67.66 3.54-2.74 3.84-4.78zm-5.81.28c-.99,1.61-1.88,4.49-.5,6.38-.2.31-.41.67-.63,1.06-1.02-2.18-3.24-4.33-4.15-5.84-.53,2.55-.16,6.92 2.72,8.84-.32.82-.57,1.65-.75,2.47-1.7-2.17-4.03-4.26-5.19-5.78-.18,3.04.96,8.29 4.78,10.62 .05,1.22.23,2.45.47,3.69-3.38-3.08-8.12-5.69-10.72-7.75 1.42,4.8 5.91,12.95 12.72,14.6 .53,1.44 1.12,2.96 1.75,4.5-4.59-3.41-11.8-4.4-16.13-5.88 4.07,4.6 12.02,11.8 18.19,10.88 .92,2.23 1.85,4.58 2.75,7.06-5.43-5.73-17.23-5.45-24.25-6.85 6.05,5.75 16.98,14.49 25.6,10.72 1.04,3.25 1.97,6.73 2.68,10.47-4.47-6.77-18.82-4.28-27.37-4.94 6.68,5.94 17.6,14.45 27.94,8.25 1.61,10.98 1.21,24.21-3.79,40.79 1.72,3.68 6.94.44 4.88-3.07 1.82-5.61 3.02-10.85 3.72-15.75 10.51-2.2 16.5-11.09 14.94-23.72-3.01,5.46-11.73,10.75-14.35,17.91 .22-3.19.26-6.23.1-9.12 7.55-3.21 12.04-12.59 9.87-20.5-.91,4.24-7.41,7.84-10.78,12.56-.45-2.66-1.05-5.17-1.72-7.6 6.13-.39 6.89-10.61 5.25-16.93-1.29,2.53-6.1,5.25-7.59,9.65-.97-2.61-2.01-5.08-3.03-7.47 6.49,1.21 5.25-7.32 3.37-12.46-1.21,1.94-5.44,3.9-5.5,7.65-3.9-8.85-7.05-16.42-5.37-24.19 1.78-3.08 2.26-5.65 1.65-5.93 0-.01-.03,0-.03,0-.35-1.55-1.26-3.21-1.53-4.32zm5.34,5.44c-.56.39-1.52.73-2.31,1.25-1.01.67-1.73,1.6-1,3.22 2.69.85 3.22-2.45 3.31-4.47zm1.63,5.38c-1.28.44-3.79.49-5.22,1.5-.86.6-1.3,1.56-.75,3.18 4.14,2.25 5.5-1.97 5.97-4.68zm1.03,5.5c-1.04.81-3.13,1.46-4.56,2.65-1.46,1.19-2.22,2.93-.38,5.91 5.81,2.11 5.58-4.5 4.94-8.56zm-24.63,54.5c4.93,7.28 13.79,17.84 26.75,9.37 3.06-12.55-16.36-8.52-26.75-9.37z" fill="url(#cc)" filter="url(#ck)"/>
   <path d="m896.41,145.78c-.21.38-.41.74-.63,1.1 34,27.03 46.64,67.72 49,126.28 8.24,6.7 13.72,9.77 15.19,7.65 .13-.15.27-.29.41-.43-.84-28.87-5.35-55.36-14.54-78.38-3.26-3.24-5.38-8-5.78-12.84-5.47-10.75-12.17-20.58-20.18-29.38-7.51-4.8-15.38-9.47-23.47-14z" fill="url(#bx)" opacity=".78836"/>
   <g transform="translate(409.23 -66)">
    <path d="m631.08,112.52c-59.76,39.68-78.55,111.48-80.65,229.39 .78,10.88-15.63,12.48-15.35,1.58 2.05-111.14 27.56-199.11 93.91-236.84 20.17-11.47 16.25-3.53 2.09,5.87z" fill="url(#as)"/>
    <path d="m628.52,85.28c-6.07,5.78-14.7,17.64-6.56,25.19 11.03-3.9 6.38-18.12 6.56-25.19zm14.94,2.69c-5.6,3.05-14.31,10.12-9.81,17.28 8.89-.69 8.28-12.12 9.81-17.28zm-31.84,5.44c-7.27,6.9-17.58,21.12-7.85,30.15 13.2-4.66 7.63-21.7 7.85-30.15zm46.22.9c-4.63.68-14.37-1.27-16.07,6.28 5.61,4.76 12.75-1.83 16.07-6.28zm-71.57,5.97c-7.6,11.63-17.01,34.09-1,43.19 16.34-10.49 3.39-31.71 1-43.19zm54.5,6.31c-3.71.14-7.27,1.14-8.53,5.32 5.25,5.14 12.81-.93 16.44-5.13-2.04.15-5.02-.29-7.91-.19zm-14.18,9.6c-3.49.05-6.67,1.29-8.94,4.97 5.56,9.4 18.77,3.56 25.59-1.07-4.27-.81-10.85-4-16.65-3.9zm-71.19,7.78c-1.81,13.78-.53,38.09 17.84,39.34 10.17-16.54-10.71-30.04-17.84-39.34zm60.34,6.44c-6.64.17-12.78,2.19-15.56,9.56 9.93,11.17 26.18-.09 34.12-8.09-4.75.02-11.92-1.65-18.56-1.47zm-87.22,13.18c.72,17.79 7.73,48.17 31.78,45.79 9.49-23.08-20.49-35.58-31.78-45.79zm87.57,10c-11.57,1.95-36.04-2.4-39.88,16.63 14.3,11.61 31.8-5.31 39.88-16.63zm-109.69,27.44c4.73,20.27 19.34,53.65 45.75,45.72 5.52-28.54-30.85-36.44-45.75-45.72zm105.62.88c-15.03,3.3-47.37-.8-51.15,24.4 19.51,14.29 41.31-9.04 51.15-24.4zm-2.75,19.34c-17.13,10.67-58.94,19.78-52.59,52.59 30.37,9.12 47.15-29.29 52.59-52.59zm-122,19.59c5.8,24.82 23.65,65.72 56,56 6.77-34.95-37.74-44.63-56-56zm119.44,26.47c-18.25,11.37-62.77,21.05-56,56 32.35,9.72 50.2-31.18 56-56z" fill="url(#ar)"/>
   </g>
   <g transform="matrix(.33393 -.16574 .16574 .33393 675.29 233.35)">
    <path d="m628.1 118.53c-36.33 45.6 10.71 139.05-86.03 237.95-5.33 4.21-10.86-2.14-12.98-9.98 107.05-114.09 47.02-196.58 96.92-233.85 18.59-13.88 16.24-3.52 2.09 5.88z" fill="url(#au)"/>
    <path d="m628.98,85.53c-5,6.36-10.18,20.09-1.26,28.07 8.38-5.34 1.86-20.58 1.26-28.07zm14.55,2.48c-5.22,3.26-12.35,11.18-7.12,18.74 7.69-1.35 5.93-13.4 7.12-18.74zm-28.98,6.99c-4.73,8.29-8.77,25.91 2.85,35.97 8.79-7.06-.98-26.38-2.85-35.97zm43.29-.69c-4.57.71-14.05-1.1-14.93,6.9 5.62,4.77 11.76-2.37 14.93-6.9zm-64.26,9.94c-2.52,14.4-1.02,42.77 17.38,53.17 8.51-14.74-10.95-39.5-17.38-53.17zm49.26,3.47c-3.21.4-6.08,1.79-6.25,6.55 5.45,5.25 10.65-2.1 13.28-6.84-1.81.28-4.5-.01-7.03.29zm-9.81,11.97c-2.77.44-4.95,2.23-5.57,6.8 7.28,10.33 15.53,1.8 19.88-4.17-3.61-.46-9.66-3.35-14.31-2.63zm-59.13,14.33c4.65,17.29 16.63,47.42 34.97,48.65 1.98-20.98-23.34-36.9-34.97-48.65zm55.27,3.68c-4.92,1.11-8.81,4.35-7.93,13.71 11.44,12 18.71-4.14 22.01-14.67-3.46.72-9.22-.18-14.08.96zm-76.46,19.04c7.93,21.7 24.55,57.31 51.19,56.32 2.94-26.63-33.41-42.6-51.19-56.32zm84.81,8.5c-7.1,4.37-27.6,2.18-23.63,25.45 14.57,11.76 21.99-10.64 23.63-25.45zm-102.01,31.61c9.14,22.66 25.7,57.1 59.21,53.03 7.6-27.41-37-39.78-59.21-53.03zm107.15,1.7c-8.93,6.62-36.19,5.28-36.76,32.23 16.61,12.71 32.85-13.64 36.76-32.23zm3.13,37.4c-11.09,13.95-52.07,8.66-54.66,36.62 23.95,5.62 50.02-12.88 54.66-36.62zm-126.64,2.41c3.15,23.38 11.81,59.28 53.06,54.4 22.32-26.5-29.12-39.95-53.06-54.4zm123.22,30.99c-17.19,11.93-55.69,12.51-64.3,39.11 27.91,7.3 52.99-6.9 64.3-39.11z" fill="url(#at)"/>
   </g>
   <path transform="matrix(1.6326 0 0 .3995 -286.39 307.97)" d="m802-3c0 27.06-21.94 49-49 49s-49-21.94-49-49 21.94-49 49-49 49 21.94 49 49z" fill="url(#i)"/>
   <path d="m1014 298c0 18.77-30.46 17-68 17s-68 1.77-68-17 12.46-46 50-46 86 27.23 86 46z" fill="url(#ao)"/>
   <path d="m1014,307.56c0,8.24-10.98,7.46-24.51,7.46-6.65,0-6.67-.16-11.08-.95 6.57-14.54 18.25-18.91 21.56-18.94 13.53,0 14.03,4.19 14.03,12.43z" fill="url(#bv)"/>
   <path transform="translate(751.01 -151.15)" d="m127 449.16c0 9.4 7.65 13.64 20.01 15.53 4.27-17.54-9.35-24.11-18.92-22.88-1.47 3.71-1.2 3.42-1.09 7.35z" fill-opacity=".20219" filter="url(#ci)"/>
   <g transform="matrix(.43125 0 0 .59345 457.83 137.16)">
    <path transform="matrix(1.6326 0 0 .30785 -286.39 308.69)" d="m802-3c0 27.06-21.94 49-49 49s-49-21.94-49-49 21.94-49 49-49 49 21.94 49 49z" fill="url(#k)"/>
    <path d="m1014 298c0 18.77-30.46 17-68 17s-68 1.77-68-17 39.37-38.92 76.9-38.92c37.54 0 59.1 20.15 59.1 38.92z" fill="url(#j)"/>
    <path d="m1006.6 333.98c0 6.62-28.47 11.99-63.6 11.99s-63.6-5.37-63.6-11.99 28.47-11.99 63.6-11.99 63.6 5.37 63.6 11.99z" fill="url(#an)"/>
   </g>
  </g>
  <g id="ch" transform="translate(-661.71 159.15)">
   <path transform="matrix(-1.1122 0 0 .22795 1817.5 319.98)" d="m802-3c0 27.06-21.94 49-49 49s-49-21.94-49-49 21.94-49 49-49 49 21.94 49 49z" fill="url(#i)"/>
   <path d="m931.63 308.24c0 17.6 20.75 15.94 46.33 15.94 25.57 0 46.32 1.66 46.32-15.94 0-17.59-41.67-25.17-67.24-25.17s-25.41 7.58-25.41 25.17z" fill="url(#ai)"/>
   <path d="m952.83,320.89c-.56-5.05-1.51-10.04-2.1-15.09-1.04-8.64-.95-17.36-.45-26.03 1.06-13.02 7.42-24.57 13.06-36.08 5.1-9.47 9.24-19.37 12.8-29.51 .85-2.43 4.49-1.62 3.55.78-3.94,10.08-8.48,19.89-13.04,29.71-5.07,11.15-10.37,22.54-11.48,34.9-.39,8.38.01,16.79 1,25.12 .76,4.65 1.61,9.34 3.43,13.7 1.95,4.71-6.2,7.57-6.77,2.5z" fill="url(#bu)"/>
   <g transform="matrix(.64969 -.22428 .22428 .64969 193.45 395.22)">
    <path d="m1161 122.43c0.4-7.91 12.17-35.35 19.82-29.77 6.98 5.11-11.31 27.46-19.82 29.77z" fill="url(#af)"/>
    <path d="m1163.9 124.09c1.8-6.54 24.08-33.41 30.04-24.65 7.02 10.32-20.41 25.44-30.04 24.65z" fill="url(#ae)"/>
    <path d="m1165.6 126.73c2.81-6.96 33.65-23.42 36.21-12.73 2.31 9.66-28.1 15.97-36.21 12.73z" fill="url(#br)"/>
    <path d="m1195.33,145.6c-12.36-3.31-30.21-10.78-29.38-13.87 .82-3.09 20.02-.64 32.38,2.67s13.23,6.24 12.41,9.33c-.83,3.09-3.05,5.18-15.41,1.87z" fill="url(#ad)"/>
    <path d="m1175.7 174.19c-7.83-13.57-16.81-35.48-13.42-37.44s17.88 16.78 25.71 30.34c7.84 13.57 6.06 16.86 2.67 18.81-3.39 1.96-7.12 1.86-14.96-11.71z" fill="url(#ac)"/>
    <path d="m1142,166.93c3.31-12.37 10.78-30.21 13.87-29.39 3.09.83.64,20.02-2.68,32.39-3.31,12.36-6.23,13.23-9.32,12.4-3.09-.82-5.19-3.04-1.87-15.4z" fill="url(#ab)"/>
    <path d="m1118.7 147.9c11.19-6.74 29.65-14.79 31.74-12.27 2.09 2.51-12.98 14.64-24.17 21.38s-14.29 5.54-16.38 3.02c-2.09-2.51-2.39-5.39 8.81-12.13z" fill="url(#aa)"/>
    <path d="m1120.48,133.21c11.03-2.43 28.46-4.09 29.57-1.67 1.11,2.43-12.32,8.93-23.36,11.35-11.03,2.43-15.51-.14-16.61-2.57-1.11-2.42-.63-4.69 10.4-7.11z" fill="url(#bq)"/>
    <path d="m1126.81,119.77c9.55,1.75 23.5,6.31 23.07,8.7-.44,2.39-15.11,1.7-24.66-.05-9.54-1.75-10.38-3.91-9.94-6.3 .43-2.38 1.98-4.1 11.53-2.35z" fill="url(#z)"/>
    <path d="m1157.5 123.52c-2.33-7.44-0.84-36.76 8.12-34.22 8.18 2.32-1.06 29.18-8.12 34.22z" fill="url(#y)"/>
    <path d="m1152.86,123.58c-9.41.63-29.95-24.61-19.36-29.25 8.24-3.62 20.51,20.68 19.36,29.25z" fill="url(#x)"/>
    <path d="m1132.2 109.5c8.36 4.89 19.9 13.9 18.68 15.99s-15.97-2.54-24.33-7.42c-8.37-4.89-7.19-8.18-5.97-10.27s3.26-3.18 11.62 1.7z" fill="url(#w)"/>
    <path d="m1155.4 121.95c-6.46-2.85-15.75-29.12-7.58-31.31 12.82-3.43 13.59 24.24 7.58 31.31z" fill="url(#v)"/>
    <path d="m1188.2 160.53c-10.96-8.17-24.03-23.22-22.06-26.06s19.99 7.1 30.95 15.27 10.73 11.5 8.76 14.34-6.69 4.63-17.65-3.55z" fill="url(#bt)"/>
    <path d="m1154.74,172.22c-1.44-15.45 1.72-32.87 5.1-33.18 3.38-.32 7.46,16.42 8.9,31.88 1.44,15.45-2.2,15.55-5.58,15.86-3.38.32-6.98.9-8.42-14.56z" fill="url(#u)"/>
    <path d="m1193.45,131.93c-10.81.52-27.12-.89-27.25-3.59-.13-2.71 15.97-5.68 26.78-6.2s12.27,1.61 12.4,4.31-1.12,4.96-11.93,5.48z" fill="url(#t)"/>
    <path d="m1129.2 158.08c8.64-11.5 23.89-26.97 26.75-24.81 2.85 2.16-7.76 21.13-16.39 32.62-8.63 11.5-12.03 11.19-14.89 9.03s-4.1-5.35 4.53-16.84z" fill="url(#s)"/>
    <path transform="matrix(.4504 0 0 .32294 566.57 20.594)" d="m1349.4 342c0 23.75-15.4 43-34.4 43s-34.4-19.25-34.4-43 15.4-43 34.4-43 34.4 19.25 34.4 43z" fill="url(#r)"/>
    <path transform="matrix(.27297 0 0 .15332 799.89 73.591)" d="m1349.4 342c0 23.75-15.4 43-34.4 43s-34.4-19.25-34.4-43 15.4-43 34.4-43 34.4 19.25 34.4 43z" fill="url(#q)"/>
   </g>
   <path d="m962.91,283.22c-2.85,8.15-5.34,16.32-6.78,24.44-.92,5.05-1.44,10.04-2.38,15.09-.08.43-.08.8-.03,1.13 1.78.12 3.63.2 5.56.25 1.24-.94 2.16-2.29 1.97-3.88-.52-4.36.04-9.05.66-13.69 1.36-7.65 3.28-15.39 5.81-23.09-1.63-.12-3.25-.19-4.81-.25z" fill-opacity=".19672"/>
   <g transform="matrix(.11023 .10458 -.074982 .079032 841.01 146.08)">
    <path d="m1174.4 245.88c-65.95-107.64 136.68-139.16 195.9-160.82-3.84 11.54-187.16 176.33-195.9 160.82z" fill="url(#bs)"/>
    <path d="m1175.1 246.02c11.98 8.84 190.72-150.55 195.2-160.96-22.95 66.87-88.85 155.97-133.33 176.61-20.84 7.97-42.58 7.05-61.87-15.65z" fill="url(#l)"/>
   </g>
   <g transform="matrix(-.14533 0 0 .10894 1129.1 239.88)">
    <path d="m1174.4 245.88c-65.6-107.35 134.66-138.43 195.9-160.82-3.84 11.54-187.16 176.33-195.9 160.82z" fill="url(#p)"/>
    <path d="m1175.1 246.02c11.98 8.84 190.72-150.55 195.2-160.96-25.81 73.48-123.31 228.43-195.2 160.96z" fill="url(#aj)"/>
   </g>
   <path transform="translate(666 -246.01)" d="m278.22,530.09c-.71.15-1.4.3-2.03.47-2.03,5.93-2.26,12.24-1.31,18.35 .26,1.73 4.59,1.04 3.9-.57-.99-3.35-1.45-6.84-1.56-10.34-.16-2.73.28-5.36 1-7.91z" fill-opacity=".17486"/>
   <path d="m941.62,302.89c1.17-7.53.58-15.35-3-22.41-2.29-5.1-5.25-9.94-6.84-15.33-2.64-1.21-.01,3.57.45,4.58 3.09,7.11 7.51,14.2 7.04,22.25-.1,3.5-.56,6.99-1.55,10.35-.69,1.6 3.64,2.29 3.9.56z" fill="url(#cd)"/>
   <g transform="matrix(.19762 -.056446 .049992 .16351 696.6 309.85)">
    <path d="m1161 122.43c0.4-7.91 12.17-35.35 19.82-29.77 6.98 5.11-11.31 27.46-19.82 29.77z" fill="url(#af)"/>
    <path d="m1163.9 124.09c1.8-6.54 24.08-33.41 30.04-24.65 7.02 10.32-20.41 25.44-30.04 24.65z" fill="url(#ae)"/>
    <path d="m1165.6 126.73c2.81-6.96 33.65-23.42 36.21-12.73 2.31 9.66-28.1 15.97-36.21 12.73z" fill="url(#cg)"/>
    <path d="m1195.33,145.6c-12.36-3.31-30.21-10.78-29.38-13.87 .82-3.09 20.02-.64 32.38,2.67s13.23,6.24 12.41,9.33c-.83,3.09-3.05,5.18-15.41,1.87z" fill="url(#ad)"/>
    <path d="m1175.7 174.19c-7.83-13.57-16.81-35.48-13.42-37.44s17.88 16.78 25.71 30.34c7.84 13.57 6.06 16.86 2.67 18.81-3.39 1.96-7.12 1.86-14.96-11.71z" fill="url(#ac)"/>
    <path d="m1142,166.93c3.31-12.37 10.78-30.21 13.87-29.39 3.09.83.64,20.02-2.68,32.39-3.31,12.36-6.23,13.23-9.32,12.4-3.09-.82-5.19-3.04-1.87-15.4z" fill="url(#ab)"/>
    <path d="m1118.7 147.9c11.19-6.74 29.65-14.79 31.74-12.27 2.09 2.51-12.98 14.64-24.17 21.38s-14.29 5.54-16.38 3.02c-2.09-2.51-2.39-5.39 8.81-12.13z" fill="url(#aa)"/>
    <path d="m1120.48,133.21c11.03-2.43 28.46-4.09 29.57-1.67 1.11,2.43-12.32,8.93-23.36,11.35-11.03,2.43-15.51-.14-16.61-2.57-1.11-2.42-.63-4.69 10.4-7.11z" fill="url(#cf)"/>
    <path d="m1126.81,119.77c9.55,1.75 23.5,6.31 23.07,8.7-.44,2.39-15.11,1.7-24.66-.05-9.54-1.75-10.38-3.91-9.94-6.3 .43-2.38 1.98-4.1 11.53-2.35z" fill="url(#z)"/>
    <path d="m1157.5 123.52c-2.33-7.44-0.84-36.76 8.12-34.22 8.18 2.32-1.06 29.18-8.12 34.22z" fill="url(#y)"/>
    <path d="m1152.86,123.58c-9.41.63-29.95-24.61-19.36-29.25 8.24-3.62 20.51,20.68 19.36,29.25z" fill="url(#x)"/>
    <path d="m1132.2 109.5c8.36 4.89 19.9 13.9 18.68 15.99s-15.97-2.54-24.33-7.42c-8.37-4.89-7.19-8.18-5.97-10.27s3.26-3.18 11.62 1.7z" fill="url(#w)"/>
    <path d="m1155.4 121.95c-6.46-2.85-15.75-29.12-7.58-31.31 12.82-3.43 13.59 24.24 7.58 31.31z" fill="url(#v)"/>
    <path d="m1188.2 160.53c-10.96-8.17-24.03-23.22-22.06-26.06s19.99 7.1 30.95 15.27 10.73 11.5 8.76 14.34-6.69 4.63-17.65-3.55z" fill="url(#ce)"/>
    <path d="m1154.74,172.22c-1.44-15.45 1.72-32.87 5.1-33.18 3.38-.32 7.46,16.42 8.9,31.88 1.44,15.45-2.2,15.55-5.58,15.86-3.38.32-6.98.9-8.42-14.56z" fill="url(#u)"/>
    <path d="m1193.45,131.93c-10.81.52-27.12-.89-27.25-3.59-.13-2.71 15.97-5.68 26.78-6.2s12.27,1.61 12.4,4.31-1.12,4.96-11.93,5.48z" fill="url(#t)"/>
    <path d="m1129.2 158.08c8.64-11.5 23.89-26.97 26.75-24.81 2.85 2.16-7.76 21.13-16.39 32.62-8.63 11.5-12.03 11.19-14.89 9.03s-4.1-5.35 4.53-16.84z" fill="url(#s)"/>
    <path transform="matrix(.4504 0 0 .32294 566.57 20.594)" d="m1349.4 342c0 23.75-15.4 43-34.4 43s-34.4-19.25-34.4-43 15.4-43 34.4-43 34.4 19.25 34.4 43z" fill="url(#r)"/>
    <path transform="matrix(.27297 0 0 .15332 799.89 73.591)" d="m1349.4 342c0 23.75-15.4 43-34.4 43s-34.4-19.25-34.4-43 15.4-43 34.4-43 34.4 19.25 34.4 43z" fill="url(#q)"/>
   </g>
   <g transform="matrix(-.05202 0 0 .038996 999.81 281.89)">
    <path d="m1174.4 245.88c-65.6-107.35 134.66-138.43 195.9-160.82-3.84 11.54-187.16 176.33-195.9 160.82z" fill="url(#p)"/>
    <path d="m1175.1 246.02c11.98 8.84 190.72-150.55 195.2-160.96-25.81 73.48-123.31 228.43-195.2 160.96z" fill="url(#l)"/>
   </g>
   <g transform="matrix(.43125 0 0 .59345 523.33 142.21)">
    <path transform="matrix(1.6326 0 0 .55102 -286.39 304.65)" d="m802-3c0 27.06-21.94 49-49 49s-49-21.94-49-49 21.94-49 49-49 49 21.94 49 49z" fill="url(#k)"/>
    <path d="m1014 298c0 18.77-30.46 17-68 17s-68 1.77-68-17 22.32-27.34 53.71-42.29c37.54-17.87 82.29 23.52 82.29 42.29z" fill="url(#j)"/>
   </g>
  </g>
  <g transform="translate(176,-319)">
   <path d="m-78.28,622.87c8.35,8.74 12.88,22.44 15.77,34.47 3.96,8.7-5.16,27.57-3.02,28.73 14.98-12.74 9.36-36.87 30.54-45.32 16.71-9.58-4.09,8.48-8.88,12.49-6.45,13.3 33.6,15.4 20.88,14.37-11.55-.3-27.36-8.73-29.38,9.25-6.31,11.58-12.86,15.79-13.6,29.57-.08,1.4 30.04-4.91 38.4,4.42-50.52.03-36.53,2.86-35.51,4.26 7.41,10.19 12.54,22.57 6.29,36.23-5.66,11.64 38.85,34.76 32.32,50.1 1.42,7.43-27.55,13.83-34.07-.23 9.79-12.19 9.28-31.87-7.28-37.69-3.35-11.44 4.18-32.2-2.86-44.56-13.45-10.44-32.83-11.13-33.79-31.76 10.43-10.22 12.77,20.99 26.8,20.6 7.28-10.61 5.33-27.88 7.25-43.1 .64-14.31-6.07-27.72-13.83-39.09 .41-1.76 2.3-2.71 3.97-2.74z" fill="url(#am)"/>
   <path d="m-11.68 697.72c2.64-23.42-2.02-32.6-19.53-33.83-8.76 14.17 12.62 10.96 19.53 33.83z" fill="url(#bg)"/>
   <path d="m-44.22 690.6c9.67-13.1 10.06-20.2 0-26.99-10.13 5.46 3.77 10.92 0 26.99z" fill="url(#bf)"/>
   <path d="m-5.59 659.37c-6.79-18.94-13.8-24.23-27.69-18.59-1.39 14.16 13.79 3.66 27.69 18.59z" fill="url(#be)"/>
   <path d="m-108.8,640.93c8.04-18.44 15.4-23.23 28.88-16.67 .42,14.21-14.02,2.71-28.88,16.67z" fill="url(#bd)"/>
   <path d="m-80.38 713.27c2.25-19.99-1.72-27.82-16.68-28.88-7.47 12.1 10.78 9.36 16.68 28.88z" fill="url(#bc)"/>
   <path d="m-128.39,703.29c8.04-18.44 15.4-23.24 28.88-16.68 .42,14.22-14.01,2.72-28.88,16.68z" fill="url(#bb)"/>
   <path d="m-56.46 647.55c-2.01-20.01-7.54-26.83-22.38-24.72-4.76 13.4 12.5 6.88 22.38 24.72z" fill="url(#ba)"/>
   <path d="m-1.78,720.09c-11.71-16.36-19.9-19.52-31.72-10.3 2.54,13.99 14.27-.26 31.72,10.3z" fill="url(#az)"/>
   <path d="m-26.37 727.63c-1.68-15.17-5.92-20.29-17.16-18.58-3.51 10.2 9.53 5.13 17.16 18.58z" fill="url(#ay)"/>
   <path d="m-136.75,693.22c11.71-16.36 19.9-19.52 31.72-10.3-2.54,13.99-14.27-.26-31.72,10.3z" fill="url(#ax)"/>
   <path d="m-112.16 700.76c1.67-15.17 5.92-20.29 17.16-18.58 3.51 10.2-9.54 5.13-17.16 18.58z" fill="url(#aw)"/>
   <path d="m-49.78 731.3c6.13-13.97 5.01-20.54-5.58-24.67-8.13 7.08 5.7 9.21 5.58 24.67z" fill="url(#av)"/>
  </g>
  <g transform="matrix(-.4125 0 0 .41549 510.49 363.23)">
   <path d="m967.24 303c0 14.91-28.22 27-63.03 27s-63.03-12.09-63.03-27 28.22-27 63.03-27 63.03 12.09 63.03 27z" fill="url(#al)"/>
   <path d="m960.15 298c0 18.77-24 17-53.57 17-29.58 0-53.58 1.77-53.58-17s-10.78-18.83 13.96-33.78c29.57-17.87 93.19 15.01 93.19 33.78z" fill="url(#ak)"/>
  </g>
 </g>
 <path d="m211.83 329.19c29.846 0 54.069-24.219 54.069-54.061s-24.223-54.061-54.069-54.061-54.069 24.219-54.069 54.061 24.223 54.061 54.069 54.061zm0-10.136c-24.25 0-43.931-19.678-43.931-43.924s19.681-43.924 43.931-43.924 43.931 19.678 43.931 43.924-19.681 43.924-43.931 43.924z" fill="url(#bn)" opacity=".55556" stroke="url(#bm)"/>
 <path d="m281.65 242.72c11.356 0 20.573-9.2154 20.573-20.57s-9.2168-20.57-20.573-20.57-20.573 9.2154-20.573 20.57 9.2168 20.57 20.573 20.57zm0-3.8569c-9.2271 0-16.716-7.4876-16.716-16.713s7.4887-16.713 16.716-16.713 16.716 7.4876 16.716 16.713-7.4887 16.713-16.716 16.713z" fill="url(#bo)"/>
 <path d="m267.3 235.86c0 5.8451-4.7391 10.583-10.585 10.583s-10.585-4.7384-10.585-10.583 4.7391-10.583 10.585-10.583 10.585 4.7384 10.585 10.583z" fill="url(#bp)" opacity=".91534"/>
 <path d="m145.83 331.2c10.526 0 19.069-8.5416 19.069-19.066s-8.5429-19.066-19.069-19.066-19.069 8.5416-19.069 19.066 8.5429 19.066 19.069 19.066zm0-3.5749c-8.5524 0-15.494-6.9401-15.494-15.491s6.9411-15.491 15.494-15.491 15.494 6.9401 15.494 15.491-6.9411 15.491-15.494 15.491z" fill="url(#bl)" opacity=".55556" stroke="url(#bk)"/>
</svg>
